<?xml version="1.0" encoding="UTF-8" standalone="no"?>
<!-- Created with Inkscape (http://www.inkscape.org/) -->

<svg
   xmlns:dc="http://purl.org/dc/elements/1.1/"
   xmlns:cc="http://creativecommons.org/ns#"
   xmlns:rdf="http://www.w3.org/1999/02/22-rdf-syntax-ns#"
   xmlns:svg="http://www.w3.org/2000/svg"
   xmlns="http://www.w3.org/2000/svg"
   xmlns:sodipodi="http://sodipodi.sourceforge.net/DTD/sodipodi-0.dtd"
   xmlns:inkscape="http://www.inkscape.org/namespaces/inkscape"
   width="48px"
   height="48px"
   id="svg2985"
   version="1.1"
   inkscape:version="0.48.4 r9939"
   sodipodi:docname="music.svg">
  <defs
     id="defs2987" />
  <sodipodi:namedview
     id="base"
     pagecolor="#ffffff"
     bordercolor="#666666"
     borderopacity="1.0"
     inkscape:pageopacity="0.0"
     inkscape:pageshadow="2"
     inkscape:zoom="9.8994949"
     inkscape:cx="-10.435046"
     inkscape:cy="6.4353291"
     inkscape:current-layer="g3771"
     showgrid="true"
     inkscape:grid-bbox="true"
     inkscape:document-units="px"
     inkscape:window-width="1680"
     inkscape:window-height="983"
     inkscape:window-x="-2"
     inkscape:window-y="-3"
     inkscape:window-maximized="1"
     showguides="true"
     inkscape:guide-bbox="true" />
  <metadata
     id="metadata2990">
    <rdf:RDF>
      <cc:Work
         rdf:about="">
        <dc:format>image/svg+xml</dc:format>
        <dc:type
           rdf:resource="http://purl.org/dc/dcmitype/StillImage" />
        <dc:title />
      </cc:Work>
    </rdf:RDF>
  </metadata>
  <g
     id="layer1"
     inkscape:label="Layer 1"
     inkscape:groupmode="layer">
    <g
       id="g3771"
       transform="translate(2.0668341,1.1082365)">
      <path
         sodipodi:nodetypes="sccsssccsccsssccs"
         inkscape:connector-curvature="0"
         id="path3029"
         d="M 23.522858,0.816355 C 21.002782,1.0935359 11.865806,4.3705536 9.584064,6.6522982 c 2.047026,9.0953098 3.220488,18.5646158 4.70586,27.8168698 0,0 -0.318714,-0.669704 -2.457506,-0.627449 -3.359806,0.06638 -6.0653316,2.016736 -6.0653316,4.496712 0,2.479975 2.7048686,4.496711 6.0653316,4.496711 3.360464,0 5.499914,-2.715616 5.960758,-4.758147 -0.03658,-0.19068 -2.927844,-17.865559 -3.411416,-24.167159 1.495702,-1.607353 8.293605,-4.122805 11.283948,-4.834895 3.401718,-0.810052 4.74014,0.01147 6.354194,1.915758 L 31.54559,31.55204 c 0,0 -0.778336,-0.945478 -2.917128,-0.903223 -3.359808,0.06638 -6.065332,2.016736 -6.065332,4.496712 0,2.479975 2.704869,4.496711 6.065332,4.496711 3.360464,0 5.499912,-2.715616 5.960758,-4.758147 -2.261468,-10.084871 1.616803,-28.630185 1.473326,-31.7923925 0,0 -5.318286,-3.069618 -12.539688,-2.2753455 z"
         style="color:#000000;fill:#cccccc;fill-opacity:1;fill-rule:nonzero;stroke:none;stroke-width:1;marker:none;visibility:visible;display:inline;overflow:visible;enable-background:accumulate" />
      <path
         style="color:#000000;fill:#000000;fill-opacity:1;fill-rule:nonzero;stroke:none;stroke-width:1;marker:none;visibility:visible;display:inline;overflow:visible;enable-background:accumulate"
         d="m 25.522858,2.816355 c -2.520076,0.2771809 -11.657052,3.5541986 -13.938794,5.8359432 2.047026,9.0953098 3.220488,18.5646158 4.70586,27.8168698 0,0 -0.318714,-0.669704 -2.457506,-0.627449 -3.359806,0.06638 -6.0653316,2.016736 -6.0653316,4.496712 0,2.479975 2.7048686,4.496711 6.0653316,4.496711 3.360464,0 5.499914,-2.715616 5.960758,-4.758147 -0.03658,-0.19068 -2.927844,-17.865559 -3.411416,-24.167159 1.495702,-1.607353 8.293605,-4.122805 11.283948,-4.834895 3.401718,-0.810052 4.74014,0.01147 6.354194,1.915758 L 33.54559,33.55204 c 0,0 -0.778336,-0.945478 -2.917128,-0.903223 -3.359808,0.06638 -6.065332,2.016736 -6.065332,4.496712 0,2.479975 2.704869,4.496711 6.065332,4.496711 3.360464,0 5.499912,-2.715616 5.960758,-4.758147 -2.261468,-10.084871 1.616803,-28.630185 1.473326,-31.7923925 0,0 -5.318286,-3.069618 -12.539688,-2.2753455 z"
         id="path3775"
         inkscape:connector-curvature="0"
         sodipodi:nodetypes="sccsssccsccsssccs" />
      <path
         sodipodi:nodetypes="sccsssccsccsssccs"
         inkscape:connector-curvature="0"
         id="path5069"
         d="M 24.533011,1.9275228 C 22.012935,2.2047037 12.875959,5.4817214 10.594217,7.763466 c 2.047026,9.09531 3.220488,18.564616 4.70586,27.81687 0,0 -0.318714,-0.669704 -2.457506,-0.627449 -3.3598062,0.06638 -6.0653321,2.016736 -6.0653321,4.496712 0,2.479975 2.7048689,4.496711 6.0653321,4.496711 3.360464,0 5.499914,-2.715616 5.960758,-4.758147 -0.03658,-0.19068 -2.927844,-17.865559 -3.411416,-24.167159 1.495702,-1.607353 8.293605,-4.122805 11.283948,-4.834895 3.401718,-0.810052 4.74014,0.01147 6.354194,1.915758 l -0.474312,20.561341 c 0,0 -0.778336,-0.945478 -2.917128,-0.903223 -3.359808,0.06638 -6.065332,2.016736 -6.065332,4.496712 0,2.479975 2.704869,4.496711 6.065332,4.496711 3.360464,0 5.499912,-2.715616 5.960758,-4.758147 -2.261468,-10.084871 1.616803,-28.6301852 1.473326,-31.7923927 0,0 -5.318286,-3.069618 -12.539688,-2.2753455 z"
         style="color:#000000;fill:#666666;fill-opacity:1;fill-rule:nonzero;stroke:none;stroke-width:1;marker:none;visibility:visible;display:inline;overflow:visible;enable-background:accumulate;stroke-miterlimit:4;stroke-dasharray:none" />
    </g>
  </g>
</svg>
