<?xml version="1.0" encoding="UTF-8" standalone="no"?>
<!-- Created with Inkscape (http://www.inkscape.org/) -->

<svg
   xmlns:dc="http://purl.org/dc/elements/1.1/"
   xmlns:cc="http://creativecommons.org/ns#"
   xmlns:rdf="http://www.w3.org/1999/02/22-rdf-syntax-ns#"
   xmlns:svg="http://www.w3.org/2000/svg"
   xmlns="http://www.w3.org/2000/svg"
   xmlns:sodipodi="http://sodipodi.sourceforge.net/DTD/sodipodi-0.dtd"
   xmlns:inkscape="http://www.inkscape.org/namespaces/inkscape"
   width="48px"
   height="48px"
   id="svg2985"
   version="1.1"
   inkscape:version="0.48.4 r9939"
   sodipodi:docname="comic.svg">
  <defs
     id="defs2987" />
  <sodipodi:namedview
     id="base"
     pagecolor="#ffffff"
     bordercolor="#666666"
     borderopacity="1.0"
     inkscape:pageopacity="0.0"
     inkscape:pageshadow="2"
     inkscape:zoom="9.899495"
     inkscape:cx="23.716081"
     inkscape:cy="15.877518"
     inkscape:current-layer="g3018"
     showgrid="true"
     inkscape:grid-bbox="true"
     inkscape:document-units="px"
     inkscape:window-width="1680"
     inkscape:window-height="983"
     inkscape:window-x="-2"
     inkscape:window-y="-3"
     inkscape:window-maximized="1"
     showguides="true"
     inkscape:guide-bbox="true" />
  <metadata
     id="metadata2990">
    <rdf:RDF>
      <cc:Work
         rdf:about="">
        <dc:format>image/svg+xml</dc:format>
        <dc:type
           rdf:resource="http://purl.org/dc/dcmitype/StillImage" />
      </cc:Work>
    </rdf:RDF>
  </metadata>
  <g
     inkscape:groupmode="layer"
     id="layer2"
     inkscape:label="styler"
     style="display:none">
    <path
       inkscape:connector-curvature="0"
       style="color:#000000;fill:#cccccc;fill-opacity:1;fill-rule:nonzero;stroke:none;stroke-width:1;marker:none;visibility:visible;display:inline;overflow:visible;enable-background:accumulate"
       d="m 1.4910714,11.848214 0,22.55962 1.4299223,0 c -0.02838,-0.04505 -0.066508,-0.0879 -0.066508,-0.13798 l 0,-0.896866 c 0,-0.253917 0.4082922,-0.448433 0.8978582,-0.448433 l 1.3301604,0 c 0.489566,0 0.8978582,0.194516 0.8978582,0.448433 l 0,0.896866 c 0,0.05008 -0.038128,0.09293 -0.066508,0.13798 l 1.1971443,0 0,-3.294257 31.0259892,0 0,3.294257 1.363414,0 c -0.02968,-0.04596 -0.06651,-0.08671 -0.06651,-0.13798 l 0,-0.896866 c 0,-0.253917 0.375038,-0.448433 0.864604,-0.448433 l 1.330161,0 c 0.489566,0 0.897858,0.194516 0.897858,0.448433 l 0,0.896866 c 0,0.05127 -0.03683,0.09202 -0.06651,0.13798 l 1.463176,0 0,-22.55962 -1.729208,0 c 0.194134,0.08394 0.33254,0.203012 0.33254,0.344948 l 0,0.896866 c 0,0.253917 -0.408292,0.448433 -0.897858,0.448433 l -1.330161,0 c -0.489566,0 -0.864604,-0.194516 -0.864604,-0.448433 l 0,-0.896866 c 0,-0.141936 0.138406,-0.261004 0.33254,-0.344948 l -1.562938,0 0,3.414988 -30.9927352,0 0,-3.414988 -1.5629384,0 c 0.1912888,0.08394 0.3325401,0.204216 0.3325401,0.344948 l 0,0.896866 c 0,0.253917 -0.4082922,0.448433 -0.8978582,0.448433 l -1.3301604,0 c -0.489566,0 -0.8978582,-0.194516 -0.8978582,-0.448433 l 0,-0.896866 c 0,-0.140732 0.1412514,-0.261003 0.3325401,-0.344948 l -1.6959544,0 z m 2.2612725,2.53537 1.3301604,0 c 0.489566,0 0.8978582,0.211764 0.8978582,0.46568 l 0,0.879618 c 0,0.253917 -0.4082922,0.465681 -0.8978582,0.465681 l -1.3301604,0 c -0.489566,0 -0.8978582,-0.211764 -0.8978582,-0.465681 l 0,-0.879618 c 0,-0.253916 0.4082922,-0.46568 0.8978582,-0.46568 z m 36.5461541,0 1.330161,0 c 0.489566,0 0.897858,0.211764 0.897858,0.46568 l 0,0.879618 c 0,0.253917 -0.408292,0.465681 -0.897858,0.465681 l -1.330161,0 c -0.489566,0 -0.864604,-0.211764 -0.864604,-0.465681 l 0,-0.879618 c 0,-0.253916 0.375038,-0.46568 0.864604,-0.46568 z m -33.0877372,1.810979 30.9927352,0 0,13.987654 -30.9927352,0 0,-13.987654 z m -3.4584169,0.845123 1.3301604,0 c 0.489566,0 0.8978582,0.194516 0.8978582,0.448432 l 0,0.896866 c 0,0.253917 -0.4082922,0.448433 -0.8978582,0.448433 l -1.3301604,0 c -0.489566,0 -0.8978582,-0.194516 -0.8978582,-0.448433 l 0,-0.896866 c 0,-0.253916 0.4082922,-0.448432 0.8978582,-0.448432 z m 36.5461541,0 1.330161,0 c 0.489566,0 0.897858,0.194516 0.897858,0.448432 l 0,0.896866 c 0,0.253917 -0.408292,0.448433 -0.897858,0.448433 l -1.330161,0 c -0.489566,0 -0.864604,-0.194516 -0.864604,-0.448433 l 0,-0.896866 c 0,-0.253916 0.375038,-0.448432 0.864604,-0.448432 z m -36.5461541,2.638855 1.3301604,0 c 0.489566,0 0.8978582,0.211763 0.8978582,0.46568 l 0,0.879618 c 0,0.253917 -0.4082922,0.46568 -0.8978582,0.46568 l -1.3301604,0 c -0.489566,0 -0.8978582,-0.211763 -0.8978582,-0.46568 l 0,-0.879618 c 0,-0.253917 0.4082922,-0.46568 0.8978582,-0.46568 z m 36.5461541,0 1.330161,0 c 0.489566,0 0.897858,0.211763 0.897858,0.46568 l 0,0.879618 c 0,0.253917 -0.408292,0.46568 -0.897858,0.46568 l -1.330161,0 c -0.489566,0 -0.864604,-0.211763 -0.864604,-0.46568 l 0,-0.879618 c 0,-0.253917 0.375038,-0.46568 0.864604,-0.46568 z m -36.5461541,2.656101 1.3301604,0 c 0.489566,0 0.8978582,0.194516 0.8978582,0.448433 l 0,0.896866 c 0,0.253917 -0.4082922,0.448433 -0.8978582,0.448433 l -1.3301604,0 c -0.489566,0 -0.8978582,-0.194516 -0.8978582,-0.448433 l 0,-0.896866 c 0,-0.253917 0.4082922,-0.448433 0.8978582,-0.448433 z m 36.5461541,0 1.330161,0 c 0.489566,0 0.897858,0.194516 0.897858,0.448433 l 0,0.896866 c 0,0.253917 -0.408292,0.448433 -0.897858,0.448433 l -1.330161,0 c -0.489566,0 -0.864604,-0.194516 -0.864604,-0.448433 l 0,-0.896866 c 0,-0.253917 0.375038,-0.448433 0.864604,-0.448433 z m -36.5461541,2.638855 1.3301604,0 c 0.489566,0 0.8978582,0.211764 0.8978582,0.465681 l 0,0.879617 c 0,0.253917 -0.4082922,0.46568 -0.8978582,0.46568 l -1.3301604,0 c -0.489566,0 -0.8978582,-0.211763 -0.8978582,-0.46568 l 0,-0.879617 c 0,-0.253917 0.4082922,-0.465681 0.8978582,-0.465681 z m 36.5461541,0 1.330161,0 c 0.489566,0 0.897858,0.211764 0.897858,0.465681 l 0,0.879617 c 0,0.253917 -0.408292,0.46568 -0.897858,0.46568 l -1.330161,0 c -0.489566,0 -0.864604,-0.211763 -0.864604,-0.46568 l 0,-0.879617 c 0,-0.253917 0.375038,-0.465681 0.864604,-0.465681 z m -36.5461541,2.656102 1.3301604,0 c 0.489566,0 0.8978582,0.194516 0.8978582,0.448432 l 0,0.896867 c 0,0.253915 -0.4082922,0.448433 -0.8978582,0.448433 l -1.3301604,0 c -0.489566,0 -0.8978582,-0.194518 -0.8978582,-0.448433 l 0,-0.896867 c 0,-0.253916 0.4082922,-0.448432 0.8978582,-0.448432 z m 36.5461541,0 1.330161,0 c 0.489566,0 0.897858,0.194516 0.897858,0.448432 l 0,0.896867 c 0,0.253915 -0.408292,0.448433 -0.897858,0.448433 l -1.330161,0 c -0.489566,0 -0.864604,-0.194518 -0.864604,-0.448433 l 0,-0.896867 c 0,-0.253916 0.375038,-0.448432 0.864604,-0.448432 z m -36.5461541,2.638854 1.3301604,0 c 0.489566,0 0.8978582,0.211764 0.8978582,0.46568 l 0,0.879618 c 0,0.253917 -0.4082922,0.465681 -0.8978582,0.465681 l -1.3301604,0 c -0.489566,0 -0.8978582,-0.211764 -0.8978582,-0.465681 l 0,-0.879618 c 0,-0.253916 0.4082922,-0.46568 0.8978582,-0.46568 z m 36.5461541,0 1.330161,0 c 0.489566,0 0.897858,0.211764 0.897858,0.46568 l 0,0.879618 c 0,0.253917 -0.408292,0.465681 -0.897858,0.465681 l -1.330161,0 c -0.489566,0 -0.864604,-0.211764 -0.864604,-0.465681 l 0,-0.879618 c 0,-0.253916 0.375038,-0.46568 0.864604,-0.46568 z"
       id="path3901" />
    <rect
       style="color:#000000;fill:#808080;fill-opacity:1;fill-rule:nonzero;stroke:none;stroke-width:1;marker:none;visibility:visible;display:inline;overflow:visible;enable-background:accumulate"
       id="rect3899"
       width="32.303894"
       height="14.941191"
       x="6.745204"
       y="15.913677" />
    <path
       style="color:#000000;fill:#000000;fill-opacity:1;fill-rule:nonzero;stroke:none;stroke-width:1;marker:none;visibility:visible;display:inline;overflow:visible;enable-background:accumulate"
       d="m 2.4031814,12.163596 0,22.559618 1.4299223,0 c -0.028376,-0.04505 -0.066508,-0.08789 -0.066508,-0.137979 l 0,-0.896865 c 0,-0.253917 0.4082919,-0.448433 0.8978582,-0.448433 l 1.3301603,0 c 0.4895664,0 0.8978583,0.194516 0.8978583,0.448433 l 0,0.896865 c 0,0.05008 -0.038132,0.09294 -0.066508,0.137979 l 1.1971443,0 0,-3.294256 31.0259892,0 0,3.294256 1.363414,0 c -0.02968,-0.04596 -0.06651,-0.08671 -0.06651,-0.137979 l 0,-0.896865 c 0,-0.253917 0.375038,-0.448433 0.864604,-0.448433 l 1.330161,0 c 0.489566,0 0.897858,0.194516 0.897858,0.448433 l 0,0.896865 c 0,0.05127 -0.03683,0.09202 -0.06651,0.137979 l 1.463176,0 0,-22.559618 -1.729208,0 c 0.194134,0.08394 0.33254,0.203011 0.33254,0.344948 l 0,0.896865 c 0,0.253917 -0.408292,0.448433 -0.897858,0.448433 l -1.330161,0 c -0.489566,0 -0.864604,-0.194516 -0.864604,-0.448433 l 0,-0.896865 c 0,-0.141937 0.138406,-0.261005 0.33254,-0.344948 l -1.562938,0 0,3.414987 -30.9927351,0 0,-3.414987 -1.5629384,0 c 0.1912883,0.08394 0.3325401,0.204216 0.3325401,0.344948 l 0,0.896865 c 0,0.253917 -0.4082919,0.448433 -0.8978583,0.448433 l -1.3301603,0 c -0.4895663,0 -0.8978582,-0.194516 -0.8978582,-0.448433 l 0,-0.896865 c 0,-0.140732 0.1412518,-0.261004 0.3325401,-0.344948 l -1.6959544,0 z m 2.2612725,2.53537 1.3301603,0 c 0.4895664,0 0.8978583,0.211763 0.8978583,0.46568 l 0,0.879618 c 0,0.253916 -0.4082919,0.46568 -0.8978583,0.46568 l -1.3301603,0 c -0.4895663,0 -0.8978582,-0.211764 -0.8978582,-0.46568 l 0,-0.879618 c 0,-0.253917 0.4082919,-0.46568 0.8978582,-0.46568 z m 36.5461541,0 1.330161,0 c 0.489566,0 0.897858,0.211763 0.897858,0.46568 l 0,0.879618 c 0,0.253916 -0.408292,0.46568 -0.897858,0.46568 l -1.330161,0 c -0.489566,0 -0.864604,-0.211764 -0.864604,-0.46568 l 0,-0.879618 c 0,-0.253917 0.375038,-0.46568 0.864604,-0.46568 z m -33.0877372,1.810978 30.9927352,0 0,13.987653 -30.9927352,0 0,-13.987653 z m -3.4584169,0.845123 1.3301603,0 c 0.4895664,0 0.8978583,0.194517 0.8978583,0.448433 l 0,0.896866 c 0,0.253917 -0.4082919,0.448433 -0.8978583,0.448433 l -1.3301603,0 c -0.4895663,0 -0.8978582,-0.194516 -0.8978582,-0.448433 l 0,-0.896866 c 0,-0.253916 0.4082919,-0.448433 0.8978582,-0.448433 z m 36.5461541,0 1.330161,0 c 0.489566,0 0.897858,0.194517 0.897858,0.448433 l 0,0.896866 c 0,0.253917 -0.408292,0.448433 -0.897858,0.448433 l -1.330161,0 c -0.489566,0 -0.864604,-0.194516 -0.864604,-0.448433 l 0,-0.896866 c 0,-0.253916 0.375038,-0.448433 0.864604,-0.448433 z m -36.5461541,2.638855 1.3301603,0 c 0.4895664,0 0.8978583,0.211764 0.8978583,0.465681 l 0,0.879617 c 0,0.253917 -0.4082919,0.465681 -0.8978583,0.465681 l -1.3301603,0 c -0.4895663,0 -0.8978582,-0.211764 -0.8978582,-0.465681 l 0,-0.879617 c 0,-0.253917 0.4082919,-0.465681 0.8978582,-0.465681 z m 36.5461541,0 1.330161,0 c 0.489566,0 0.897858,0.211764 0.897858,0.465681 l 0,0.879617 c 0,0.253917 -0.408292,0.465681 -0.897858,0.465681 l -1.330161,0 c -0.489566,0 -0.864604,-0.211764 -0.864604,-0.465681 l 0,-0.879617 c 0,-0.253917 0.375038,-0.465681 0.864604,-0.465681 z m -36.5461541,2.656101 1.3301603,0 c 0.4895664,0 0.8978583,0.194517 0.8978583,0.448433 l 0,0.896867 c 0,0.253916 -0.4082919,0.448432 -0.8978583,0.448432 l -1.3301603,0 c -0.4895663,0 -0.8978582,-0.194516 -0.8978582,-0.448432 l 0,-0.896867 c 0,-0.253916 0.4082919,-0.448433 0.8978582,-0.448433 z m 36.5461541,0 1.330161,0 c 0.489566,0 0.897858,0.194517 0.897858,0.448433 l 0,0.896867 c 0,0.253916 -0.408292,0.448432 -0.897858,0.448432 l -1.330161,0 c -0.489566,0 -0.864604,-0.194516 -0.864604,-0.448432 l 0,-0.896867 c 0,-0.253916 0.375038,-0.448433 0.864604,-0.448433 z m -36.5461541,2.638856 1.3301603,0 c 0.4895664,0 0.8978583,0.211763 0.8978583,0.46568 l 0,0.879617 c 0,0.253917 -0.4082919,0.465681 -0.8978583,0.465681 l -1.3301603,0 c -0.4895663,0 -0.8978582,-0.211764 -0.8978582,-0.465681 l 0,-0.879617 c 0,-0.253917 0.4082919,-0.46568 0.8978582,-0.46568 z m 36.5461541,0 1.330161,0 c 0.489566,0 0.897858,0.211763 0.897858,0.46568 l 0,0.879617 c 0,0.253917 -0.408292,0.465681 -0.897858,0.465681 l -1.330161,0 c -0.489566,0 -0.864604,-0.211764 -0.864604,-0.465681 l 0,-0.879617 c 0,-0.253917 0.375038,-0.46568 0.864604,-0.46568 z m -36.5461541,2.656101 1.3301603,0 c 0.4895664,0 0.8978583,0.194516 0.8978583,0.448433 l 0,0.896866 c 0,0.253917 -0.4082919,0.448433 -0.8978583,0.448433 l -1.3301603,0 c -0.4895663,0 -0.8978582,-0.194516 -0.8978582,-0.448433 l 0,-0.896866 c 0,-0.253917 0.4082919,-0.448433 0.8978582,-0.448433 z m 36.5461541,0 1.330161,0 c 0.489566,0 0.897858,0.194516 0.897858,0.448433 l 0,0.896866 c 0,0.253917 -0.408292,0.448433 -0.897858,0.448433 l -1.330161,0 c -0.489566,0 -0.864604,-0.194516 -0.864604,-0.448433 l 0,-0.896866 c 0,-0.253917 0.375038,-0.448433 0.864604,-0.448433 z m -36.5461541,2.638855 1.3301603,0 c 0.4895664,0 0.8978583,0.211763 0.8978583,0.46568 l 0,0.879618 c 0,0.253917 -0.4082919,0.46568 -0.8978583,0.46568 l -1.3301603,0 c -0.4895663,0 -0.8978582,-0.211763 -0.8978582,-0.46568 l 0,-0.879618 c 0,-0.253917 0.4082919,-0.46568 0.8978582,-0.46568 z m 36.5461541,0 1.330161,0 c 0.489566,0 0.897858,0.211763 0.897858,0.46568 l 0,0.879618 c 0,0.253917 -0.408292,0.46568 -0.897858,0.46568 l -1.330161,0 c -0.489566,0 -0.864604,-0.211763 -0.864604,-0.46568 l 0,-0.879618 c 0,-0.253917 0.375038,-0.46568 0.864604,-0.46568 z"
       id="rect2993"
       inkscape:connector-curvature="0" />
    <path
       id="path3897"
       d="m 1.8711173,12.045327 0,22.55962 1.4299223,0 c -0.028376,-0.04505 -0.066508,-0.0879 -0.066508,-0.13798 l 0,-0.896866 c 0,-0.253916 0.4082918,-0.448432 0.8978582,-0.448432 l 1.3301603,0 c 0.4895664,0 0.8978582,0.194516 0.8978582,0.448432 l 0,0.896866 c 0,0.05008 -0.038132,0.09294 -0.066508,0.13798 l 1.1971443,0 0,-3.294257 31.0259894,0 0,3.294257 1.363414,0 c -0.02968,-0.04597 -0.06651,-0.08671 -0.06651,-0.13798 l 0,-0.896866 c 0,-0.253916 0.375038,-0.448432 0.864604,-0.448432 l 1.330161,0 c 0.489566,0 0.897858,0.194516 0.897858,0.448432 l 0,0.896866 c 0,0.05127 -0.03683,0.09202 -0.06651,0.13798 l 1.463176,0 0,-22.55962 -1.729208,0 c 0.194134,0.08394 0.33254,0.203012 0.33254,0.344949 l 0,0.896865 c 0,0.253917 -0.408292,0.448433 -0.897858,0.448433 l -1.330161,0 c -0.489566,0 -0.864604,-0.194516 -0.864604,-0.448433 l 0,-0.896865 c 0,-0.141937 0.138406,-0.261005 0.33254,-0.344949 l -1.562938,0 0,3.414989 -30.9927354,0 0,-3.414989 -1.5629383,0 c 0.1912883,0.08394 0.33254,0.204216 0.33254,0.344949 l 0,0.896865 c 0,0.253917 -0.4082918,0.448433 -0.8978582,0.448433 l -1.3301603,0 c -0.4895664,0 -0.8978582,-0.194516 -0.8978582,-0.448433 l 0,-0.896865 c 0,-0.140733 0.1412517,-0.261004 0.3325401,-0.344949 l -1.6959544,0 z m 2.2612725,2.53537 1.3301603,0 c 0.4895664,0 0.8978582,0.211764 0.8978582,0.465681 l 0,0.879618 c 0,0.253917 -0.4082918,0.46568 -0.8978582,0.46568 l -1.3301603,0 c -0.4895664,0 -0.8978582,-0.211763 -0.8978582,-0.46568 l 0,-0.879618 c 0,-0.253917 0.4082918,-0.465681 0.8978582,-0.465681 z m 36.5461542,0 1.330161,0 c 0.489566,0 0.897858,0.211764 0.897858,0.465681 l 0,0.879618 c 0,0.253917 -0.408292,0.46568 -0.897858,0.46568 l -1.330161,0 c -0.489566,0 -0.864604,-0.211763 -0.864604,-0.46568 l 0,-0.879618 c 0,-0.253917 0.375038,-0.465681 0.864604,-0.465681 z m -33.0877374,1.810979 30.9927354,0 0,13.987654 -30.9927354,0 0,-13.987654 z m -3.4584168,0.845124 1.3301603,0 c 0.4895664,0 0.8978582,0.194515 0.8978582,0.448432 l 0,0.896866 c 0,0.253916 -0.4082918,0.448432 -0.8978582,0.448432 l -1.3301603,0 c -0.4895664,0 -0.8978582,-0.194516 -0.8978582,-0.448432 l 0,-0.896866 c 0,-0.253917 0.4082918,-0.448432 0.8978582,-0.448432 z m 36.5461542,0 1.330161,0 c 0.489566,0 0.897858,0.194515 0.897858,0.448432 l 0,0.896866 c 0,0.253916 -0.408292,0.448432 -0.897858,0.448432 l -1.330161,0 c -0.489566,0 -0.864604,-0.194516 -0.864604,-0.448432 l 0,-0.896866 c 0,-0.253917 0.375038,-0.448432 0.864604,-0.448432 z m -36.5461542,2.638854 1.3301603,0 c 0.4895664,0 0.8978582,0.211764 0.8978582,0.46568 l 0,0.879618 c 0,0.253917 -0.4082918,0.465681 -0.8978582,0.465681 l -1.3301603,0 c -0.4895664,0 -0.8978582,-0.211764 -0.8978582,-0.465681 l 0,-0.879618 c 0,-0.253916 0.4082918,-0.46568 0.8978582,-0.46568 z m 36.5461542,0 1.330161,0 c 0.489566,0 0.897858,0.211764 0.897858,0.46568 l 0,0.879618 c 0,0.253917 -0.408292,0.465681 -0.897858,0.465681 l -1.330161,0 c -0.489566,0 -0.864604,-0.211764 -0.864604,-0.465681 l 0,-0.879618 c 0,-0.253916 0.375038,-0.46568 0.864604,-0.46568 z m -36.5461542,2.656102 1.3301603,0 c 0.4895664,0 0.8978582,0.194515 0.8978582,0.448432 l 0,0.896866 c 0,0.253917 -0.4082918,0.448433 -0.8978582,0.448433 l -1.3301603,0 c -0.4895664,0 -0.8978582,-0.194516 -0.8978582,-0.448433 l 0,-0.896866 c 0,-0.253917 0.4082918,-0.448432 0.8978582,-0.448432 z m 36.5461542,0 1.330161,0 c 0.489566,0 0.897858,0.194515 0.897858,0.448432 l 0,0.896866 c 0,0.253917 -0.408292,0.448433 -0.897858,0.448433 l -1.330161,0 c -0.489566,0 -0.864604,-0.194516 -0.864604,-0.448433 l 0,-0.896866 c 0,-0.253917 0.375038,-0.448432 0.864604,-0.448432 z m -36.5461542,2.638855 1.3301603,0 c 0.4895664,0 0.8978582,0.211763 0.8978582,0.465679 l 0,0.879619 c 0,0.253917 -0.4082918,0.46568 -0.8978582,0.46568 l -1.3301603,0 c -0.4895664,0 -0.8978582,-0.211763 -0.8978582,-0.46568 l 0,-0.879619 c 0,-0.253916 0.4082918,-0.465679 0.8978582,-0.465679 z m 36.5461542,0 1.330161,0 c 0.489566,0 0.897858,0.211763 0.897858,0.465679 l 0,0.879619 c 0,0.253917 -0.408292,0.46568 -0.897858,0.46568 l -1.330161,0 c -0.489566,0 -0.864604,-0.211763 -0.864604,-0.46568 l 0,-0.879619 c 0,-0.253916 0.375038,-0.465679 0.864604,-0.465679 z m -36.5461542,2.656101 1.3301603,0 c 0.4895664,0 0.8978582,0.194516 0.8978582,0.448433 l 0,0.896865 c 0,0.253917 -0.4082918,0.448434 -0.8978582,0.448434 l -1.3301603,0 c -0.4895664,0 -0.8978582,-0.194517 -0.8978582,-0.448434 l 0,-0.896865 c 0,-0.253917 0.4082918,-0.448433 0.8978582,-0.448433 z m 36.5461542,0 1.330161,0 c 0.489566,0 0.897858,0.194516 0.897858,0.448433 l 0,0.896865 c 0,0.253917 -0.408292,0.448434 -0.897858,0.448434 l -1.330161,0 c -0.489566,0 -0.864604,-0.194517 -0.864604,-0.448434 l 0,-0.896865 c 0,-0.253917 0.375038,-0.448433 0.864604,-0.448433 z m -36.5461542,2.638854 1.3301603,0 c 0.4895664,0 0.8978582,0.211764 0.8978582,0.465681 l 0,0.879618 c 0,0.253917 -0.4082918,0.46568 -0.8978582,0.46568 l -1.3301603,0 c -0.4895664,0 -0.8978582,-0.211763 -0.8978582,-0.46568 l 0,-0.879618 c 0,-0.253917 0.4082918,-0.465681 0.8978582,-0.465681 z m 36.5461542,0 1.330161,0 c 0.489566,0 0.897858,0.211764 0.897858,0.465681 l 0,0.879618 c 0,0.253917 -0.408292,0.46568 -0.897858,0.46568 l -1.330161,0 c -0.489566,0 -0.864604,-0.211763 -0.864604,-0.46568 l 0,-0.879618 c 0,-0.253917 0.375038,-0.465681 0.864604,-0.465681 z"
       style="color:#000000;fill:#4d4d4d;fill-opacity:1;fill-rule:nonzero;stroke:none;stroke-width:1;marker:none;visibility:visible;display:inline;overflow:visible;enable-background:accumulate"
       inkscape:connector-curvature="0" />
  </g>
  <g
     id="layer1"
     inkscape:label="Layer 1"
     inkscape:groupmode="layer"
     style="display:inline">
    <g
       id="g3018"
       transform="translate(0,2.2223356)">
      <g
         id="g3962">
        <path
           style="color:#000000;fill:#cccccc;fill-opacity:1;fill-rule:nonzero;stroke:none;stroke-width:1;marker:none;visibility:visible;display:inline;overflow:visible;enable-background:accumulate"
           d="M 21.349525,1.3888321 C 13.062324,1.7784517 1.2674333,5.8672997 1.4120246,15.857582 c 1.5331475,9.191525 12.4113704,12.45026 20.5000004,12.8125 5.683985,4.694118 11.336802,9.426344 17.09375,14.03125 -1.354763,-5.004954 -5.569619,-11.278167 -5.375,-15.4375 7.115653,-1.586402 15.223886,-9.075953 10.875,-16.8125 C 43.826572,8.5599162 40.942176,6.9281911 39.763947,5.6430628 39.438294,5.287864 39.999766,3.9168592 40.701071,2.4543702 37.2099,1.859782 30.606132,2.4035679 25.787025,1.3888321 c -1.478193,-0.029165 -2.961163,-0.1378293 -4.4375,0 z"
           id="path3045"
           inkscape:connector-curvature="0"
           sodipodi:nodetypes="ccccccsccc" />
        <path
           sodipodi:nodetypes="ccccccsccc"
           inkscape:connector-curvature="0"
           id="path3043"
           d="M 22.743433,4.0959389 C 14.456232,4.4855585 2.6613418,8.5744065 2.8059331,18.564689 c 1.5331475,9.191525 12.4113699,12.45026 20.4999999,12.8125 5.683985,4.694118 13.054061,12.355786 17.09375,13.122113 1.170618,-1.974497 -5.569619,-10.36903 -5.375,-14.528363 7.115653,-1.586402 15.223886,-9.075953 10.875,-16.8125 C 45.22048,11.267023 42.336084,9.6352979 41.157855,8.3501696 40.832202,7.9949708 41.393674,6.623966 42.094979,5.161477 38.603808,4.5668888 32.00004,5.1106747 27.180933,4.0959389 c -1.478193,-0.029165 -2.961163,-0.1378293 -4.4375,0 z"
           style="color:#000000;fill:#000000;fill-opacity:1;fill-rule:nonzero;stroke:none;stroke-width:1;marker:none;visibility:visible;display:inline;overflow:visible;enable-background:accumulate" />
        <path
           sodipodi:nodetypes="ccccccsccc"
           inkscape:connector-curvature="0"
           id="path3964"
           d="M 21.53125,2.5 C 13.244049,2.8896196 1.4491587,6.9784676 1.59375,16.96875 c 1.5331475,9.191525 12.41137,12.45026 20.5,12.8125 5.683985,4.694118 11.336802,9.426344 17.09375,14.03125 C 37.832737,38.807546 33.617881,32.534333 33.8125,28.375 40.928153,26.788598 49.036386,19.299047 44.6875,11.5625 44.008297,9.6710837 41.123901,8.0393586 39.945672,6.7542307 39.620019,6.3990319 40.181491,5.0280271 40.882796,3.5655381 37.391625,2.9709499 30.787857,3.5147358 25.96875,2.5 24.490557,2.470835 23.007587,2.3621707 21.53125,2.5 z"
           style="color:#000000;fill:#4d4d4d;fill-opacity:1;fill-rule:nonzero;stroke:none;stroke-width:1;marker:none;visibility:visible;display:inline;overflow:visible;enable-background:accumulate" />
        <g
           style="fill:#ececec"
           inkscape:transform-center-y="3.7142857"
           inkscape:transform-center-x="13.571429"
           transform="matrix(1,0,0.17599999,1,27.302858,-11.428571)"
           id="g3968" />
      </g>
      <g
         id="g3951">
        <path
           style="color:#000000;fill:#999999;fill-opacity:1;fill-rule:nonzero;stroke:none;stroke-width:1;marker:none;visibility:visible;display:inline;overflow:visible;enable-background:accumulate"
           d="M 21.100511,26.361707 34.579338,37.53451 29.572918,25.142856 z"
           id="path4870"
           inkscape:connector-curvature="0" />
        <path
           d="m 40.366318,21.571428 a 19.580603,7.857142 0 1 1 -39.1612055,0 19.580603,7.857142 0 1 1 39.1612055,0 z"
           sodipodi:ry="7.857142"
           sodipodi:rx="19.580603"
           sodipodi:cy="21.571428"
           sodipodi:cx="20.785715"
           id="path4872"
           style="color:#000000;fill:#999999;fill-opacity:1;fill-rule:nonzero;stroke:none;stroke-width:1;marker:none;visibility:visible;display:inline;overflow:visible;enable-background:accumulate"
           sodipodi:type="arc"
           transform="matrix(0.94788273,0,0,1.4909091,4.0230327,-16.018183)" />
        <g
           id="g3940"
           transform="matrix(1,0,0.17599999,1,27.302858,-11.428571)"
           inkscape:transform-center-x="13.571429"
           inkscape:transform-center-y="3.7142857"
           style="fill:#ececec">
          <rect
             y="18.571428"
             x="-15.714286"
             height="17.857143"
             width="3.2857144"
             id="rect3926"
             style="color:#000000;fill:#ececec;fill-opacity:1;fill-rule:nonzero;stroke:none;stroke-width:0.70055073;marker:none;visibility:visible;display:inline;overflow:visible;enable-background:accumulate" />
          <rect
             style="color:#000000;fill:#ececec;fill-opacity:1;fill-rule:nonzero;stroke:none;stroke-width:0.70055073;marker:none;visibility:visible;display:inline;overflow:visible;enable-background:accumulate"
             id="rect3928"
             width="3.2857144"
             height="17.857143"
             x="-10.285714"
             y="18.571428" />
          <rect
             transform="matrix(0,-1,1,0,0,0)"
             style="color:#000000;fill:#ececec;fill-opacity:1;fill-rule:nonzero;stroke:none;stroke-width:0.70055073;marker:none;visibility:visible;display:inline;overflow:visible;enable-background:accumulate"
             id="rect3930"
             width="3.2857144"
             height="17.857143"
             x="-31.857143"
             y="-20.285715" />
          <rect
             transform="matrix(0,-1,1,0,0,0)"
             y="-20.285715"
             x="-26.428572"
             height="17.857143"
             width="3.2857144"
             id="rect3932"
             style="color:#000000;fill:#ececec;fill-opacity:1;fill-rule:nonzero;stroke:none;stroke-width:0.70055073;marker:none;visibility:visible;display:inline;overflow:visible;enable-background:accumulate" />
        </g>
        <path
           style="color:#000000;fill:#ececec;fill-opacity:1;fill-rule:nonzero;stroke:none;stroke-width:0.70055073;marker:none;visibility:visible;display:inline;overflow:visible;enable-background:accumulate"
           d="m 32,4.9999998 6.428572,0 -4,15.2857152 -2.285715,-1 z"
           id="rect3946"
           inkscape:connector-curvature="0"
           sodipodi:nodetypes="ccccc" />
        <path
           sodipodi:type="arc"
           style="color:#000000;fill:#ececec;fill-opacity:1;fill-rule:nonzero;stroke:none;stroke-width:0.70055073;marker:none;visibility:visible;display:inline;overflow:visible;enable-background:accumulate"
           id="path3949"
           sodipodi:cx="33.642857"
           sodipodi:cy="23.928572"
           sodipodi:rx="2.0714285"
           sodipodi:ry="1.5"
           d="m 35.714285,23.928572 c 0,0.828427 -0.92741,1.5 -2.071428,1.5 -1.144019,0 -2.071429,-0.671573 -2.071429,-1.5 0,-0.828427 0.92741,-1.5 2.071429,-1.5 1.144018,0 2.071428,0.671573 2.071428,1.5 z"
           transform="translate(-0.57142857,-1.1428571)" />
      </g>
    </g>
  </g>
</svg>
