<?xml version="1.0" encoding="UTF-8" standalone="no"?>
<!-- Created with Inkscape (http://www.inkscape.org/) -->

<svg
   xmlns:dc="http://purl.org/dc/elements/1.1/"
   xmlns:cc="http://creativecommons.org/ns#"
   xmlns:rdf="http://www.w3.org/1999/02/22-rdf-syntax-ns#"
   xmlns:svg="http://www.w3.org/2000/svg"
   xmlns="http://www.w3.org/2000/svg"
   xmlns:sodipodi="http://sodipodi.sourceforge.net/DTD/sodipodi-0.dtd"
   xmlns:inkscape="http://www.inkscape.org/namespaces/inkscape"
   width="48px"
   height="48px"
   id="svg2985"
   version="1.1"
   inkscape:version="0.48.4 r9939"
   sodipodi:docname="movie.svg">
  <defs
     id="defs2987" />
  <sodipodi:namedview
     id="base"
     pagecolor="#ffffff"
     bordercolor="#666666"
     borderopacity="1.0"
     inkscape:pageopacity="0.0"
     inkscape:pageshadow="2"
     inkscape:zoom="2"
     inkscape:cx="47.70407"
     inkscape:cy="23.529089"
     inkscape:current-layer="layer1"
     showgrid="true"
     inkscape:grid-bbox="true"
     inkscape:document-units="px"
     inkscape:window-width="1680"
     inkscape:window-height="983"
     inkscape:window-x="-2"
     inkscape:window-y="-3"
     inkscape:window-maximized="1" />
  <metadata
     id="metadata2990">
    <rdf:RDF>
      <cc:Work
         rdf:about="">
        <dc:format>image/svg+xml</dc:format>
        <dc:type
           rdf:resource="http://purl.org/dc/dcmitype/StillImage" />
        <dc:title />
      </cc:Work>
    </rdf:RDF>
  </metadata>
  <g
     id="layer1"
     inkscape:label="Layer 1"
     inkscape:groupmode="layer">
    <path
       id="path3883"
       d="m 8.7072382,1.8712791 c 0.033204,0.1334428 0.0625,0.2624859 0.0625,0.40625 l 0,0.59375 c 0,0.9497143 -0.7690357,1.6875 -1.71875,1.6875 l -2.5625,0 c -0.9497143,0 -1.71875,-0.7377857 -1.71875,-1.6875 l 0,-0.59375 c 0,-0.1296055 0.0041,-0.2536195 0.03125,-0.375 -0.8287182,0.1183113 -1.46875,0.7931387 -1.46875,1.65625 l 0,40.3124999 c 0,0.949714 0.7690357,1.6875 1.71875,1.6875 -0.1933447,-0.278029 -0.28125,-0.635452 -0.28125,-1 l 0,-0.5625 c 0,-0.949714 0.7690357,-1.71875 1.71875,-1.71875 l 2.5625,0 c 0.9497143,0 1.71875,0.769036 1.71875,1.71875 l 0,0.5625 c 0,0.371902 -0.1119746,0.718841 -0.3125,1 l 1.9687508,0 0,-11 26,0 0,11 1.9375,0 c -0.200525,-0.281159 -0.3125,-0.628098 -0.3125,-1 l 0,-0.5625 c 0,-0.949714 0.769036,-1.71875 1.71875,-1.71875 l 2.59375,0 c 0.949714,0 1.6875,0.769036 1.6875,1.71875 l 0,0.5625 c 0,0.371902 -0.117806,0.718841 -0.3125,1 l 0.1875,0 c 0.949714,0 1.71875,-0.737786 1.71875,-1.6875 l 0,-40.3124999 c 0,-0.9283068 -0.736197,-1.6552501 -1.65625,-1.6875 0.03199,0.1334428 0.0625,0.2624859 0.0625,0.40625 l 0,0.59375 c 0,0.9497143 -0.737786,1.6875 -1.6875,1.6875 l -2.59375,0 c -0.949714,0 -1.71875,-0.7377857 -1.71875,-1.6875 l 0,-0.59375 c 0,-0.1437641 0.0293,-0.2728072 0.0625,-0.40625 l -1.6875,0 0,7.125 -26,0 0,-7.125 -1.7187508,0 z m -4.21875,4.65625 2.5625,0 c 0.9497143,0 1.71875,0.7690357 1.71875,1.71875 l 0,0.5625 c 0,0.949715 -0.7690357,1.7187499 -1.71875,1.7187499 l -2.5625,0 c -0.9497143,0 -1.71875,-0.7690349 -1.71875,-1.7187499 l 0,-0.5625 c 0,-0.9497143 0.7690357,-1.71875 1.71875,-1.71875 z m 35.2812508,0 2.59375,0 c 0.949714,0 1.6875,0.7690357 1.6875,1.71875 l 0,0.5625 c 0,0.949715 -0.737786,1.7187499 -1.6875,1.7187499 l -2.59375,0 c -0.949714,0 -1.71875,-0.7690349 -1.71875,-1.7187499 l 0,-0.5625 c 0,-0.9497143 0.769036,-1.71875 1.71875,-1.71875 z m -29.34375,4.8437499 26,0 0,20.84375 -26,0 0,-20.84375 z m -5.9375008,1.125 2.5625,0 c 0.9497143,0 1.71875,0.769036 1.71875,1.71875 l 0,0.5625 c 0,0.949714 -0.7690357,1.71875 -1.71875,1.71875 l -2.5625,0 c -0.9497143,0 -1.71875,-0.769036 -1.71875,-1.71875 l 0,-0.5625 c 0,-0.949714 0.7690357,-1.71875 1.71875,-1.71875 z m 35.2812508,0 2.59375,0 c 0.949714,0 1.6875,0.769036 1.6875,1.71875 l 0,0.5625 c 0,0.949714 -0.737786,1.71875 -1.6875,1.71875 l -2.59375,0 c -0.949714,0 -1.71875,-0.769036 -1.71875,-1.71875 l 0,-0.5625 c 0,-0.949714 0.769036,-1.71875 1.71875,-1.71875 z m -35.2812508,5.96875 2.5625,0 c 0.9497143,0 1.71875,0.737786 1.71875,1.6875 l 0,0.59375 c 0,0.949714 -0.7690357,1.71875 -1.71875,1.71875 l -2.5625,0 c -0.9497143,0 -1.71875,-0.769036 -1.71875,-1.71875 l 0,-0.59375 c 0,-0.949714 0.7690357,-1.6875 1.71875,-1.6875 z m 35.2812508,0 2.59375,0 c 0.949714,0 1.6875,0.737786 1.6875,1.6875 l 0,0.59375 c 0,0.949714 -0.737786,1.71875 -1.6875,1.71875 l -2.59375,0 c -0.949714,0 -1.71875,-0.769036 -1.71875,-1.71875 l 0,-0.59375 c 0,-0.949714 0.769036,-1.6875 1.71875,-1.6875 z m -35.2812508,5.9375 2.5625,0 c 0.9497143,0 1.71875,0.769036 1.71875,1.71875 l 0,0.5625 c 0,0.949715 -0.7690357,1.71875 -1.71875,1.71875 l -2.5625,0 c -0.9497143,0 -1.71875,-0.769035 -1.71875,-1.71875 l 0,-0.5625 c 0,-0.949714 0.7690357,-1.71875 1.71875,-1.71875 z m 35.2812508,0 2.59375,0 c 0.949714,0 1.6875,0.769036 1.6875,1.71875 l 0,0.5625 c 0,0.949715 -0.737786,1.71875 -1.6875,1.71875 l -2.59375,0 c -0.949714,0 -1.71875,-0.769035 -1.71875,-1.71875 l 0,-0.5625 c 0,-0.949714 0.769036,-1.71875 1.71875,-1.71875 z m -35.2812508,5.96875 2.5625,0 c 0.9497143,0 1.71875,0.769035 1.71875,1.71875 l 0,0.5625 c 0,0.949714 -0.7690357,1.71875 -1.71875,1.71875 l -2.5625,0 c -0.9497143,0 -1.71875,-0.769036 -1.71875,-1.71875 l 0,-0.5625 c 0,-0.949715 0.7690357,-1.71875 1.71875,-1.71875 z m 35.2812508,0 2.59375,0 c 0.949714,0 1.6875,0.769035 1.6875,1.71875 l 0,0.5625 c 0,0.949714 -0.737786,1.71875 -1.6875,1.71875 l -2.59375,0 c -0.949714,0 -1.71875,-0.769036 -1.71875,-1.71875 l 0,-0.5625 c 0,-0.949715 0.769036,-1.71875 1.71875,-1.71875 z m -35.2812508,5.96875 2.5625,0 c 0.9497143,0 1.71875,0.737786 1.71875,1.6875 l 0,0.59375 c 0,0.949714 -0.7690357,1.71875 -1.71875,1.71875 l -2.5625,0 c -0.9497143,0 -1.71875,-0.769036 -1.71875,-1.71875 l 0,-0.59375 c 0,-0.949714 0.7690357,-1.6875 1.71875,-1.6875 z m 35.2812508,0 2.59375,0 c 0.949714,0 1.6875,0.737786 1.6875,1.6875 l 0,0.59375 c 0,0.949714 -0.737786,1.71875 -1.6875,1.71875 l -2.59375,0 c -0.949714,0 -1.71875,-0.769036 -1.71875,-1.71875 l 0,-0.59375 c 0,-0.949714 0.769036,-1.6875 1.71875,-1.6875 z"
       style="color:#000000;fill:#e6e6e6;fill-opacity:1;fill-rule:nonzero;stroke:none;stroke-width:0.70055073;marker:none;visibility:visible;display:inline;overflow:visible;enable-background:accumulate"
       inkscape:connector-curvature="0" />
    <path
       id="path3885"
       d="m 10.057075,2.7167826 c 0.0332,0.1334428 0.0625,0.2624859 0.0625,0.40625 l 0,0.59375 c 0,0.9497143 -0.7690364,1.6875 -1.7187504,1.6875 l -2.5625,0 c -0.9497143,0 -1.71875,-0.7377857 -1.71875,-1.6875 l 0,-0.59375 c 0,-0.1296055 0.0041,-0.2536195 0.03125,-0.375 -0.8287182,0.1183113 -1.46875,0.7931387 -1.46875,1.65625 l 0,40.3125004 c 0,0.949714 0.7690357,1.6875 1.71875,1.6875 -0.1933447,-0.278029 -0.28125,-0.635452 -0.28125,-1 l 0,-0.5625 c 0,-0.949714 0.7690357,-1.71875 1.71875,-1.71875 l 2.5625,0 c 0.949714,0 1.7187504,0.769036 1.7187504,1.71875 l 0,0.5625 c 0,0.371902 -0.111975,0.718841 -0.3125001,1 l 1.9687501,0 0,-11 26,0 0,11 1.9375,0 c -0.200525,-0.281159 -0.3125,-0.628098 -0.3125,-1 l 0,-0.5625 c 0,-0.949714 0.769036,-1.71875 1.71875,-1.71875 l 2.59375,0 c 0.949714,0 1.6875,0.769036 1.6875,1.71875 l 0,0.5625 c 0,0.371902 -0.117806,0.718841 -0.3125,1 l 0.1875,0 c 0.949714,0 1.71875,-0.737786 1.71875,-1.6875 l 0,-40.3125004 c 0,-0.9283068 -0.736197,-1.6552501 -1.65625,-1.6875 0.03199,0.1334428 0.0625,0.2624859 0.0625,0.40625 l 0,0.59375 c 0,0.9497143 -0.737786,1.6875 -1.6875,1.6875 l -2.59375,0 c -0.949714,0 -1.71875,-0.7377857 -1.71875,-1.6875 l 0,-0.59375 c 0,-0.1437641 0.0293,-0.2728072 0.0625,-0.40625 l -1.6875,0 0,7.1250004 -26,0 0,-7.1250004 -1.71875,0 z m -4.2187504,4.65625 2.5625,0 c 0.949714,0 1.7187504,0.7690357 1.7187504,1.71875 l 0,0.5625 c 0,0.9497154 -0.7690364,1.7187504 -1.7187504,1.7187504 l -2.5625,0 c -0.9497143,0 -1.71875,-0.769035 -1.71875,-1.7187504 l 0,-0.5625 c 0,-0.9497143 0.7690357,-1.71875 1.71875,-1.71875 z m 35.2812504,0 2.59375,0 c 0.949714,0 1.6875,0.7690357 1.6875,1.71875 l 0,0.5625 c 0,0.9497154 -0.737786,1.7187504 -1.6875,1.7187504 l -2.59375,0 c -0.949714,0 -1.71875,-0.769035 -1.71875,-1.7187504 l 0,-0.5625 c 0,-0.9497143 0.769036,-1.71875 1.71875,-1.71875 z m -29.34375,4.8437504 26,0 0,20.84375 -26,0 0,-20.84375 z m -5.9375004,1.125 2.5625,0 c 0.949714,0 1.7187504,0.769036 1.7187504,1.71875 l 0,0.5625 c 0,0.949714 -0.7690364,1.71875 -1.7187504,1.71875 l -2.5625,0 c -0.9497143,0 -1.71875,-0.769036 -1.71875,-1.71875 l 0,-0.5625 c 0,-0.949714 0.7690357,-1.71875 1.71875,-1.71875 z m 35.2812504,0 2.59375,0 c 0.949714,0 1.6875,0.769036 1.6875,1.71875 l 0,0.5625 c 0,0.949714 -0.737786,1.71875 -1.6875,1.71875 l -2.59375,0 c -0.949714,0 -1.71875,-0.769036 -1.71875,-1.71875 l 0,-0.5625 c 0,-0.949714 0.769036,-1.71875 1.71875,-1.71875 z m -35.2812504,5.96875 2.5625,0 c 0.949714,0 1.7187504,0.737786 1.7187504,1.6875 l 0,0.59375 c 0,0.949714 -0.7690364,1.71875 -1.7187504,1.71875 l -2.5625,0 c -0.9497143,0 -1.71875,-0.769036 -1.71875,-1.71875 l 0,-0.59375 c 0,-0.949714 0.7690357,-1.6875 1.71875,-1.6875 z m 35.2812504,0 2.59375,0 c 0.949714,0 1.6875,0.737786 1.6875,1.6875 l 0,0.59375 c 0,0.949714 -0.737786,1.71875 -1.6875,1.71875 l -2.59375,0 c -0.949714,0 -1.71875,-0.769036 -1.71875,-1.71875 l 0,-0.59375 c 0,-0.949714 0.769036,-1.6875 1.71875,-1.6875 z m -35.2812504,5.9375 2.5625,0 c 0.949714,0 1.7187504,0.769036 1.7187504,1.71875 l 0,0.5625 c 0,0.949715 -0.7690364,1.71875 -1.7187504,1.71875 l -2.5625,0 c -0.9497143,0 -1.71875,-0.769035 -1.71875,-1.71875 l 0,-0.5625 c 0,-0.949714 0.7690357,-1.71875 1.71875,-1.71875 z m 35.2812504,0 2.59375,0 c 0.949714,0 1.6875,0.769036 1.6875,1.71875 l 0,0.5625 c 0,0.949715 -0.737786,1.71875 -1.6875,1.71875 l -2.59375,0 c -0.949714,0 -1.71875,-0.769035 -1.71875,-1.71875 l 0,-0.5625 c 0,-0.949714 0.769036,-1.71875 1.71875,-1.71875 z m -35.2812504,5.96875 2.5625,0 c 0.949714,0 1.7187504,0.769035 1.7187504,1.71875 l 0,0.5625 c 0,0.949714 -0.7690364,1.71875 -1.7187504,1.71875 l -2.5625,0 c -0.9497143,0 -1.71875,-0.769036 -1.71875,-1.71875 l 0,-0.5625 c 0,-0.949715 0.7690357,-1.71875 1.71875,-1.71875 z m 35.2812504,0 2.59375,0 c 0.949714,0 1.6875,0.769035 1.6875,1.71875 l 0,0.5625 c 0,0.949714 -0.737786,1.71875 -1.6875,1.71875 l -2.59375,0 c -0.949714,0 -1.71875,-0.769036 -1.71875,-1.71875 l 0,-0.5625 c 0,-0.949715 0.769036,-1.71875 1.71875,-1.71875 z m -35.2812504,5.96875 2.5625,0 c 0.949714,0 1.7187504,0.737786 1.7187504,1.6875 l 0,0.59375 c 0,0.949714 -0.7690364,1.71875 -1.7187504,1.71875 l -2.5625,0 c -0.9497143,0 -1.71875,-0.769036 -1.71875,-1.71875 l 0,-0.59375 c 0,-0.949714 0.7690357,-1.6875 1.71875,-1.6875 z m 35.2812504,0 2.59375,0 c 0.949714,0 1.6875,0.737786 1.6875,1.6875 l 0,0.59375 c 0,0.949714 -0.737786,1.71875 -1.6875,1.71875 l -2.59375,0 c -0.949714,0 -1.71875,-0.769036 -1.71875,-1.71875 l 0,-0.59375 c 0,-0.949714 0.769036,-1.6875 1.71875,-1.6875 z"
       style="color:#000000;fill:#000000;fill-opacity:1;fill-rule:nonzero;stroke:none;stroke-width:0.70055073;marker:none;visibility:visible;display:inline;overflow:visible;enable-background:accumulate"
       inkscape:connector-curvature="0" />
    <rect
       style="color:#000000;fill:#cccccc;fill-opacity:1;fill-rule:nonzero;stroke:none;stroke-width:0.70055073000000001;marker:none;visibility:visible;display:inline;overflow:visible;enable-background:accumulate"
       id="rect3881"
       width="27.142857"
       height="43"
       x="10.714286"
       y="2.5714285"
       ry="0" />
    <path
       style="color:#000000;fill:#4d4d4d;fill-opacity:1;fill-rule:nonzero;stroke:none;stroke-width:0.70055073000000001;marker:none;visibility:visible;display:inline;overflow:visible;enable-background:accumulate;opacity:1"
       d="M 9.21875 2.15625 C 9.2519536 2.2896928 9.28125 2.4187359 9.28125 2.5625 L 9.28125 3.15625 C 9.28125 4.1059643 8.5122143 4.84375 7.5625 4.84375 L 5 4.84375 C 4.0502857 4.84375 3.28125 4.1059643 3.28125 3.15625 L 3.28125 2.5625 C 3.28125 2.4328945 3.2853511 2.3088805 3.3125 2.1875 C 2.4837818 2.3058113 1.84375 2.9806387 1.84375 3.84375 L 1.84375 44.15625 C 1.84375 45.105964 2.6127857 45.84375 3.5625 45.84375 C 3.3691553 45.565721 3.28125 45.208298 3.28125 44.84375 L 3.28125 44.28125 C 3.28125 43.331536 4.0502857 42.5625 5 42.5625 L 7.5625 42.5625 C 8.5122143 42.5625 9.28125 43.331536 9.28125 44.28125 L 9.28125 44.84375 C 9.28125 45.215652 9.1692754 45.562591 8.96875 45.84375 L 10.9375 45.84375 L 10.9375 34.84375 L 36.9375 34.84375 L 36.9375 45.84375 L 38.875 45.84375 C 38.674475 45.562591 38.5625 45.215652 38.5625 44.84375 L 38.5625 44.28125 C 38.5625 43.331536 39.331536 42.5625 40.28125 42.5625 L 42.875 42.5625 C 43.824714 42.5625 44.5625 43.331536 44.5625 44.28125 L 44.5625 44.84375 C 44.5625 45.215652 44.444694 45.562591 44.25 45.84375 L 44.4375 45.84375 C 45.387214 45.84375 46.15625 45.105964 46.15625 44.15625 L 46.15625 3.84375 C 46.15625 2.9154432 45.420053 2.1884999 44.5 2.15625 C 44.531988 2.2896928 44.5625 2.4187359 44.5625 2.5625 L 44.5625 3.15625 C 44.5625 4.1059643 43.824714 4.84375 42.875 4.84375 L 40.28125 4.84375 C 39.331536 4.84375 38.5625 4.1059643 38.5625 3.15625 L 38.5625 2.5625 C 38.5625 2.4187359 38.591796 2.2896928 38.625 2.15625 L 36.9375 2.15625 L 36.9375 9.28125 L 10.9375 9.28125 L 10.9375 2.15625 L 9.21875 2.15625 z M 5 6.8125 L 7.5625 6.8125 C 8.5122143 6.8125 9.28125 7.5815357 9.28125 8.53125 L 9.28125 9.09375 C 9.28125 10.043465 8.5122143 10.8125 7.5625 10.8125 L 5 10.8125 C 4.0502857 10.8125 3.28125 10.043465 3.28125 9.09375 L 3.28125 8.53125 C 3.28125 7.5815357 4.0502857 6.8125 5 6.8125 z M 40.28125 6.8125 L 42.875 6.8125 C 43.824714 6.8125 44.5625 7.5815357 44.5625 8.53125 L 44.5625 9.09375 C 44.5625 10.043465 43.824714 10.8125 42.875 10.8125 L 40.28125 10.8125 C 39.331536 10.8125 38.5625 10.043465 38.5625 9.09375 L 38.5625 8.53125 C 38.5625 7.5815357 39.331536 6.8125 40.28125 6.8125 z M 10.9375 11.65625 L 36.9375 11.65625 L 36.9375 32.5 L 10.9375 32.5 L 10.9375 11.65625 z M 5 12.78125 L 7.5625 12.78125 C 8.5122143 12.78125 9.28125 13.550286 9.28125 14.5 L 9.28125 15.0625 C 9.28125 16.012214 8.5122143 16.78125 7.5625 16.78125 L 5 16.78125 C 4.0502857 16.78125 3.28125 16.012214 3.28125 15.0625 L 3.28125 14.5 C 3.28125 13.550286 4.0502857 12.78125 5 12.78125 z M 40.28125 12.78125 L 42.875 12.78125 C 43.824714 12.78125 44.5625 13.550286 44.5625 14.5 L 44.5625 15.0625 C 44.5625 16.012214 43.824714 16.78125 42.875 16.78125 L 40.28125 16.78125 C 39.331536 16.78125 38.5625 16.012214 38.5625 15.0625 L 38.5625 14.5 C 38.5625 13.550286 39.331536 12.78125 40.28125 12.78125 z M 5 18.75 L 7.5625 18.75 C 8.5122143 18.75 9.28125 19.487786 9.28125 20.4375 L 9.28125 21.03125 C 9.28125 21.980964 8.5122143 22.75 7.5625 22.75 L 5 22.75 C 4.0502857 22.75 3.28125 21.980964 3.28125 21.03125 L 3.28125 20.4375 C 3.28125 19.487786 4.0502857 18.75 5 18.75 z M 40.28125 18.75 L 42.875 18.75 C 43.824714 18.75 44.5625 19.487786 44.5625 20.4375 L 44.5625 21.03125 C 44.5625 21.980964 43.824714 22.75 42.875 22.75 L 40.28125 22.75 C 39.331536 22.75 38.5625 21.980964 38.5625 21.03125 L 38.5625 20.4375 C 38.5625 19.487786 39.331536 18.75 40.28125 18.75 z M 5 24.6875 L 7.5625 24.6875 C 8.5122143 24.6875 9.28125 25.456536 9.28125 26.40625 L 9.28125 26.96875 C 9.28125 27.918465 8.5122143 28.6875 7.5625 28.6875 L 5 28.6875 C 4.0502857 28.6875 3.28125 27.918465 3.28125 26.96875 L 3.28125 26.40625 C 3.28125 25.456536 4.0502857 24.6875 5 24.6875 z M 40.28125 24.6875 L 42.875 24.6875 C 43.824714 24.6875 44.5625 25.456536 44.5625 26.40625 L 44.5625 26.96875 C 44.5625 27.918465 43.824714 28.6875 42.875 28.6875 L 40.28125 28.6875 C 39.331536 28.6875 38.5625 27.918465 38.5625 26.96875 L 38.5625 26.40625 C 38.5625 25.456536 39.331536 24.6875 40.28125 24.6875 z M 5 30.65625 L 7.5625 30.65625 C 8.5122143 30.65625 9.28125 31.425285 9.28125 32.375 L 9.28125 32.9375 C 9.28125 33.887214 8.5122143 34.65625 7.5625 34.65625 L 5 34.65625 C 4.0502857 34.65625 3.28125 33.887214 3.28125 32.9375 L 3.28125 32.375 C 3.28125 31.425285 4.0502857 30.65625 5 30.65625 z M 40.28125 30.65625 L 42.875 30.65625 C 43.824714 30.65625 44.5625 31.425285 44.5625 32.375 L 44.5625 32.9375 C 44.5625 33.887214 43.824714 34.65625 42.875 34.65625 L 40.28125 34.65625 C 39.331536 34.65625 38.5625 33.887214 38.5625 32.9375 L 38.5625 32.375 C 38.5625 31.425285 39.331536 30.65625 40.28125 30.65625 z M 5 36.625 L 7.5625 36.625 C 8.5122143 36.625 9.28125 37.362786 9.28125 38.3125 L 9.28125 38.90625 C 9.28125 39.855964 8.5122143 40.625 7.5625 40.625 L 5 40.625 C 4.0502857 40.625 3.28125 39.855964 3.28125 38.90625 L 3.28125 38.3125 C 3.28125 37.362786 4.0502857 36.625 5 36.625 z M 40.28125 36.625 L 42.875 36.625 C 43.824714 36.625 44.5625 37.362786 44.5625 38.3125 L 44.5625 38.90625 C 44.5625 39.855964 43.824714 40.625 42.875 40.625 L 40.28125 40.625 C 39.331536 40.625 38.5625 39.855964 38.5625 38.90625 L 38.5625 38.3125 C 38.5625 37.362786 39.331536 36.625 40.28125 36.625 z "
       id="rect3018" />
    <g
       id="g3062"
       transform="translate(34.714286,0)" />
  </g>
</svg>
